<svg width="16" height="30" fill="none" xmlns="http://www.w3.org/2000/svg"><path d="M12.3025 5.9425c.9989 0 1.9979 0 2.6971-.3125.3996-.8333.5994-1.979.5994-3.1249-.1998 0-.0999-.3125-.1998-.4166 0-.2083-.2997-.2083-.2997-.4167-.2996-.2083-.4994-.4166-.6992-.625C13.701.8386 13.0018.7345 12.2026.526c-.7991 0-1.898-.1041-2.5972.1042-2.5972 0-3.9957 1.1458-5.2944 2.5 0 .104 0 .2082-.0999.2082-.5993 1.6666-.0998 3.7499-.1997 5.8332.0998.4166.0998 1.0416.1997 1.4582-.9989.3125-2.1976.4167-3.3963.5209-.2997.3124-.1998 1.1458-.1998 1.7707.0999.625.2997 1.1458.3996 1.6666.1997.2084.5993.4167.7991.5209.0999 0 .0999.1041.0999.1041.4995.3125 1.4984 0 2.2975.1042-.0998 2.0832.2997 4.0623 0 5.9373 0 .3125.2997.4166.1998.8333 0 1.0416-.0999 2.0832.1998 2.8124-.2997.5208-.4994 1.0416-.3996 1.8749.1 0 .1.2083.1.3125-.1.5208.5993.2083.4994.7291.1998.5208-.3996.2083-.3996.5208v.9375c.4995.3125 1.4984.2083 2.2976.2083.899-.4166 2.1976-.5208 2.797-1.2499.4995.2083.899 0 1.1987-.2083 0-.3125.2997-.3125.1998-.7292 0-.3125-.1998-.5208-.0999-.9375v-3.0207c-.1998-2.3957 0-5.104-.2997-7.4997.8991-.1042 1.898-.1042 2.5973-.4167.3995-.5208.3995-1.2499.4994-1.9791.1998-.2083.1998-.6249.1998-1.0416.1998-.2083.0999-.7291.0999-1.1458-.0999-.625-.1998-1.354-.7991-1.4583-.8991-.2083-1.9979.625-2.9968.3125 0-1.1458-.2997-2.3957 0-3.5415.7991-.2083 1.4984-.4167 2.1976-.625Zm-3.796 4.9998c.1.3125.2997.5208.3996.7292.1 0 .1998 0 .1998.1041 1.1987.1042 2.1977-.1041 3.0967-.3125 0 1.0417-.2997 1.7708-.4994 2.6041-.6993 0-1.4984.3125-1.998.2083-.2996.2084-.3995.5209-.5993.7292 0 .4166.1.5208 0 .8333-.1998.1042-.0999.625-.1998.8333v1.5624c.1.3125-.0999.3125-.0999.5209v3.6457c-.0998.3124.1.3124.1.5208v3.1249c.0998.3124-.1.8333.0998.9374-.0999.4167-.3995 0-.7991.1042-.4995.1041-.899.4166-1.4984.4166.0999-.4166.2997-.6249.2997-1.1458 0-.4166-.3996-.3124-.4995-.5208.1998-.6249.5994-1.1458.6993-1.8749.1997-.5208.6992-1.3541.2996-1.8749-.4994-.1042-.4994.3125-.7991.4166 0 .1042 0 .2083-.1.2083 0 .1042 0 .2084-.0998.2084-.1998.1041 0 .1041 0 0 0-.1042 0-.2084.0999-.2084 0-.1041 0-.2083.0999-.2083v-.3125c.3996-.6249.6992-1.2499.7991-2.0832.1998-.3125.2997-.7292.3996-1.0417.1998-.3124.2997-.9374.0999-1.2499-.4995 0-.7991.3125-.899.7291-.2997-.2083.1997-.4166.0998-.7291.1-.2083.1998-.625.2997-.8333.1998-.4167.5994-1.3541 0-1.6666-.3995 0-.5993.2083-.6992.5208-.1998.2083-.3996.4166-.4995.7291-.3996-.1041-.0999-.7291-.1998-1.1458-.0999-.5208.1-.9374 0-1.2499-.5993-.8333-1.9978-.1042-3.1966-.3125-.0999-.3125-.1998-1.0416-.0999-1.25.999-.1041 2.4974.2084 3.1966-.2083 0-.1041 0-.2083.1-.2083.0998-.7292-.2998-1.0416-.4996-1.4583.1998-.8333 0-2.0832.1-3.1249.1997-.1041.2996-.4166.4994-.625.1-1.0416.6993-1.5624.6993-2.604-.2997 0-.5994-.1042-.5994.2083-.2997-.1042-.3996.5208-.4995.2083-.0998-.5208.1998-.625.2997-1.0416.5994-.4167 1.1987-.8333 1.898-1.25 1.6982-.2083 4.5951-.4166 6.0935.2084.0999.625-.2997.9374-.1998 1.5624h-1.4984c-1.0988.2083-1.9979.7291-2.9968 1.0416-.1998.1042-.2997.3125-.4995.4167 0 .4166-.1997.625-.2996 1.0416-.2997 1.4583-.1 2.7082-.1 4.1665Z" fill="#000"/></svg>