<svg width="27" height="34" fill="none" xmlns="http://www.w3.org/2000/svg"><path d="M13.6506 0h-.1004L0 1.3959v24.6276L13.5502 34 27 26.0235V1.3959L13.6506 0Zm11.4423 12.0645-11.5427-6.78v-.0998h-.1004l-.1004-.0997v.0998L1.9071 12.0645V3.0909l11.5427-1.1965L25.0929 3.091v8.9736ZM13.4498 6.7801l11.5428 6.6803-4.5168 2.5924-7.1264-4.1877v1.3959l5.922 3.4897-.9034.4986-5.0186-2.9912v1.3959l3.8142 2.2932-.803.4985-3.0112-1.7947v1.3959l1.9071 1.0968-1.8067 1.0968-11.4424-6.6804 11.4424-6.78ZM1.9071 15.0557l11.4423 6.7801v.997l-7.9293-4.6862v1.3959l8.0297 4.7859v1.0968L5.4201 20.739v1.3959l8.0297 4.7859 8.1301-4.8856v-5.1848l3.4127-1.9941v9.9707l-11.5428 6.8797-11.5427-6.78v-9.871Z" fill="#63D1BB"/></svg>